<svg xmlns="http://www.w3.org/2000/svg" xmlns:xlink="http://www.w3.org/1999/xlink" width="674" zoomAndPan="magnify" viewBox="0 0 505.5 232.499993" height="310" preserveAspectRatio="xMidYMid meet" version="1.0"><defs><g/></defs><g fill="#ffffff" fill-opacity="1"><g transform="translate(75.545444, 126.4117)"><g><path d="M 3.375 0 L 3.375 -38.859375 L 18.703125 -38.859375 C 21.648438 -38.859375 24.160156 -38.296875 26.234375 -37.171875 C 28.316406 -36.054688 29.90625 -34.507812 31 -32.53125 C 32.09375 -30.550781 32.640625 -28.269531 32.640625 -25.6875 C 32.640625 -23.113281 32.082031 -20.84375 30.96875 -18.875 C 29.851562 -16.90625 28.242188 -15.363281 26.140625 -14.25 C 24.035156 -13.144531 21.488281 -12.59375 18.5 -12.59375 L 11.59375 -12.59375 L 11.59375 0 Z M 11.59375 -19.1875 L 17.171875 -19.1875 C 19.523438 -19.1875 21.28125 -19.789062 22.4375 -21 C 23.59375 -22.207031 24.171875 -23.769531 24.171875 -25.6875 C 24.171875 -27.625 23.59375 -29.179688 22.4375 -30.359375 C 21.28125 -31.546875 19.515625 -32.140625 17.140625 -32.140625 L 11.59375 -32.140625 Z M 11.59375 -19.1875 "/></g></g></g><g fill="#ffffff" fill-opacity="1"><g transform="translate(110.156162, 126.4117)"><g><path d="M 3.375 0 L 3.375 -38.859375 L 11.59375 -38.859375 L 11.59375 -6.78125 L 28.25 -6.78125 L 28.25 0 Z M 3.375 0 "/></g></g></g><g fill="#ffffff" fill-opacity="1"><g transform="translate(140.47849, 126.4117)"><g><path d="M 10.078125 0 L 1.265625 0 L 14.6875 -38.859375 L 25.28125 -38.859375 L 38.671875 0 L 29.875 0 L 26.984375 -8.859375 L 12.953125 -8.859375 Z M 15.046875 -15.28125 L 24.921875 -15.28125 L 20.140625 -29.984375 L 19.828125 -29.984375 Z M 15.046875 -15.28125 "/></g></g></g><g fill="#ffffff" fill-opacity="1"><g transform="translate(180.440207, 126.4117)"><g><path d="M 1.09375 -38.859375 L 10.296875 -38.859375 L 19.171875 -22.125 L 19.546875 -22.125 L 28.40625 -38.859375 L 37.609375 -38.859375 L 23.4375 -13.734375 L 23.4375 0 L 15.28125 0 L 15.28125 -13.734375 Z M 1.09375 -38.859375 "/></g></g></g><g fill="#ffffff" fill-opacity="1"><g transform="translate(219.149562, 126.4117)"><g><path d="M 3.375 0 L 3.375 -38.859375 L 29.5625 -38.859375 L 29.5625 -32.09375 L 11.59375 -32.09375 L 11.59375 -22.828125 L 28.21875 -22.828125 L 28.21875 -16.046875 L 11.59375 -16.046875 L 11.59375 -6.78125 L 29.640625 -6.78125 L 29.640625 0 Z M 3.375 0 "/></g></g></g><g fill="#ffffff" fill-opacity="1"><g transform="translate(251.881736, 126.4117)"><g><path d="M 3.375 0 L 3.375 -38.859375 L 18.703125 -38.859375 C 23.117188 -38.859375 26.546875 -37.707031 28.984375 -35.40625 C 31.421875 -33.101562 32.640625 -30.023438 32.640625 -26.171875 C 32.640625 -23.515625 32.046875 -21.242188 30.859375 -19.359375 C 29.679688 -17.472656 27.984375 -16.054688 25.765625 -15.109375 L 34.03125 0 L 24.953125 0 L 17.59375 -13.78125 L 11.59375 -13.78125 L 11.59375 0 Z M 11.59375 -20.375 L 17.171875 -20.375 C 21.835938 -20.375 24.171875 -22.304688 24.171875 -26.171875 C 24.171875 -30.148438 21.828125 -32.140625 17.140625 -32.140625 L 11.59375 -32.140625 Z M 11.59375 -20.375 "/></g></g></g><g fill="#ffffff" fill-opacity="1"><g transform="translate(286.947858, 126.4117)"><g/></g></g><g fill="#ffffff" fill-opacity="1"><g transform="translate(299.338647, 126.4117)"><g><path d="M 17.15625 0 L 3.375 0 L 3.375 -38.859375 L 17.265625 -38.859375 C 21.171875 -38.859375 24.535156 -38.082031 27.359375 -36.53125 C 30.191406 -34.988281 32.367188 -32.765625 33.890625 -29.859375 C 35.410156 -26.960938 36.171875 -23.5 36.171875 -19.46875 C 36.171875 -15.414062 35.40625 -11.9375 33.875 -9.03125 C 32.351562 -6.125 30.171875 -3.890625 27.328125 -2.328125 C 24.492188 -0.773438 21.101562 0 17.15625 0 Z M 11.59375 -7.046875 L 16.8125 -7.046875 C 20.46875 -7.046875 23.238281 -8.03125 25.125 -10 C 27.019531 -11.96875 27.96875 -15.125 27.96875 -19.46875 C 27.96875 -23.78125 27.019531 -26.914062 25.125 -28.875 C 23.238281 -30.84375 20.472656 -31.828125 16.828125 -31.828125 L 11.59375 -31.828125 Z M 11.59375 -7.046875 "/></g></g></g><g fill="#ffffff" fill-opacity="1"><g transform="translate(338.199803, 126.4117)"><g><path d="M 39.09375 -19.4375 C 39.09375 -15.195312 38.289062 -11.585938 36.6875 -8.609375 C 35.09375 -5.640625 32.921875 -3.375 30.171875 -1.8125 C 27.421875 -0.25 24.328125 0.53125 20.890625 0.53125 C 17.441406 0.53125 14.34375 -0.25 11.59375 -1.8125 C 8.851562 -3.382812 6.679688 -5.660156 5.078125 -8.640625 C 3.484375 -11.617188 2.6875 -15.21875 2.6875 -19.4375 C 2.6875 -23.664062 3.484375 -27.265625 5.078125 -30.234375 C 6.679688 -33.210938 8.851562 -35.484375 11.59375 -37.046875 C 14.34375 -38.609375 17.441406 -39.390625 20.890625 -39.390625 C 24.328125 -39.390625 27.421875 -38.609375 30.171875 -37.046875 C 32.921875 -35.484375 35.09375 -33.210938 36.6875 -30.234375 C 38.289062 -27.265625 39.09375 -23.664062 39.09375 -19.4375 Z M 30.765625 -19.4375 C 30.765625 -23.5625 29.863281 -26.707031 28.0625 -28.875 C 26.269531 -31.039062 23.878906 -32.125 20.890625 -32.125 C 17.910156 -32.125 15.519531 -31.039062 13.71875 -28.875 C 11.925781 -26.707031 11.03125 -23.5625 11.03125 -19.4375 C 11.03125 -15.320312 11.925781 -12.175781 13.71875 -10 C 15.519531 -7.820312 17.910156 -6.734375 20.890625 -6.734375 C 23.878906 -6.734375 26.269531 -7.820312 28.0625 -10 C 29.863281 -12.175781 30.765625 -15.320312 30.765625 -19.4375 Z M 30.765625 -19.4375 "/></g></g></g><g fill="#ffffff" fill-opacity="1"><g transform="translate(379.983137, 126.4117)"><g><path d="M 11.59375 -38.859375 L 11.59375 0 L 3.375 0 L 3.375 -38.859375 Z M 11.59375 -38.859375 "/></g></g></g><g fill="#ffffff" fill-opacity="1"><g transform="translate(394.973524, 126.4117)"><g><path d="M 24.453125 -27.6875 C 24.304688 -29.21875 23.65625 -30.40625 22.5 -31.25 C 21.34375 -32.101562 19.78125 -32.53125 17.8125 -32.53125 C 15.800781 -32.53125 14.257812 -32.117188 13.1875 -31.296875 C 12.113281 -30.472656 11.578125 -29.4375 11.578125 -28.1875 C 11.546875 -26.789062 12.140625 -25.734375 13.359375 -25.015625 C 14.585938 -24.304688 16.039062 -23.753906 17.71875 -23.359375 L 21.21875 -22.53125 C 23.46875 -22.019531 25.46875 -21.28125 27.21875 -20.3125 C 28.96875 -19.351562 30.347656 -18.117188 31.359375 -16.609375 C 32.367188 -15.097656 32.875 -13.257812 32.875 -11.09375 C 32.851562 -7.539062 31.515625 -4.710938 28.859375 -2.609375 C 26.210938 -0.503906 22.519531 0.546875 17.78125 0.546875 C 13.0625 0.546875 9.296875 -0.523438 6.484375 -2.671875 C 3.679688 -4.828125 2.226562 -8.003906 2.125 -12.203125 L 10.078125 -12.203125 C 10.210938 -10.253906 10.976562 -8.789062 12.375 -7.8125 C 13.78125 -6.832031 15.550781 -6.34375 17.6875 -6.34375 C 19.769531 -6.34375 21.4375 -6.785156 22.6875 -7.671875 C 23.9375 -8.554688 24.566406 -9.707031 24.578125 -11.125 C 24.566406 -12.4375 23.988281 -13.445312 22.84375 -14.15625 C 21.707031 -14.863281 20.082031 -15.472656 17.96875 -15.984375 L 13.734375 -17.046875 C 10.460938 -17.828125 7.875 -19.070312 5.96875 -20.78125 C 4.070312 -22.488281 3.132812 -24.769531 3.15625 -27.625 C 3.132812 -29.976562 3.757812 -32.035156 5.03125 -33.796875 C 6.3125 -35.566406 8.0625 -36.941406 10.28125 -37.921875 C 12.507812 -38.898438 15.039062 -39.390625 17.875 -39.390625 C 20.757812 -39.390625 23.28125 -38.894531 25.4375 -37.90625 C 27.59375 -36.925781 29.269531 -35.554688 30.46875 -33.796875 C 31.675781 -32.035156 32.296875 -30 32.328125 -27.6875 Z M 24.453125 -27.6875 "/></g></g></g><g fill="#ffffff" fill-opacity="1"><g transform="translate(75.350668, 151.04132)"><g><path d="M 1.421875 0 L 1.421875 -16.34375 L 12.4375 -16.34375 L 12.4375 -13.5 L 4.875 -13.5 L 4.875 -9.59375 L 11.859375 -9.59375 L 11.859375 -6.75 L 4.875 -6.75 L 4.875 -2.84375 L 12.46875 -2.84375 L 12.46875 0 Z M 1.421875 0 "/></g></g></g><g fill="#ffffff" fill-opacity="1"><g transform="translate(87.791673, 151.04132)"><g><path d="M 15.09375 -16.34375 L 15.09375 0 L 12.109375 0 L 5 -10.28125 L 4.875 -10.28125 L 4.875 0 L 1.421875 0 L 1.421875 -16.34375 L 4.453125 -16.34375 L 11.5 -6.0625 L 11.65625 -6.0625 L 11.65625 -16.34375 Z M 15.09375 -16.34375 "/></g></g></g><g fill="#ffffff" fill-opacity="1"><g transform="translate(102.98608, 151.04132)"><g><path d="M 15.84375 -10.625 L 12.34375 -10.625 C 12.207031 -11.519531 11.820312 -12.222656 11.1875 -12.734375 C 10.5625 -13.253906 9.773438 -13.515625 8.828125 -13.515625 C 7.554688 -13.515625 6.539062 -13.046875 5.78125 -12.109375 C 5.019531 -11.179688 4.640625 -9.867188 4.640625 -8.171875 C 4.640625 -6.421875 5.019531 -5.09375 5.78125 -4.1875 C 6.550781 -3.28125 7.554688 -2.828125 8.796875 -2.828125 C 9.722656 -2.828125 10.503906 -3.066406 11.140625 -3.546875 C 11.773438 -4.035156 12.175781 -4.710938 12.34375 -5.578125 L 15.84375 -5.5625 C 15.71875 -4.5625 15.359375 -3.617188 14.765625 -2.734375 C 14.179688 -1.859375 13.378906 -1.144531 12.359375 -0.59375 C 11.347656 -0.0507812 10.144531 0.21875 8.75 0.21875 C 7.289062 0.21875 5.988281 -0.109375 4.84375 -0.765625 C 3.695312 -1.421875 2.789062 -2.375 2.125 -3.625 C 1.46875 -4.875 1.140625 -6.390625 1.140625 -8.171875 C 1.140625 -9.953125 1.472656 -11.46875 2.140625 -12.71875 C 2.804688 -13.96875 3.710938 -14.921875 4.859375 -15.578125 C 6.015625 -16.234375 7.3125 -16.5625 8.75 -16.5625 C 10.007812 -16.5625 11.144531 -16.328125 12.15625 -15.859375 C 13.164062 -15.398438 13.992188 -14.726562 14.640625 -13.84375 C 15.285156 -12.957031 15.6875 -11.882812 15.84375 -10.625 Z M 15.84375 -10.625 "/></g></g></g><g fill="#ffffff" fill-opacity="1"><g transform="translate(118.563569, 151.04132)"><g><path d="M 16.4375 -8.171875 C 16.4375 -6.390625 16.097656 -4.875 15.421875 -3.625 C 14.753906 -2.375 13.84375 -1.421875 12.6875 -0.765625 C 11.53125 -0.109375 10.226562 0.21875 8.78125 0.21875 C 7.332031 0.21875 6.03125 -0.109375 4.875 -0.765625 C 3.71875 -1.421875 2.804688 -2.375 2.140625 -3.625 C 1.472656 -4.882812 1.140625 -6.398438 1.140625 -8.171875 C 1.140625 -9.953125 1.472656 -11.46875 2.140625 -12.71875 C 2.804688 -13.96875 3.71875 -14.921875 4.875 -15.578125 C 6.03125 -16.234375 7.332031 -16.5625 8.78125 -16.5625 C 10.226562 -16.5625 11.53125 -16.234375 12.6875 -15.578125 C 13.84375 -14.921875 14.753906 -13.96875 15.421875 -12.71875 C 16.097656 -11.46875 16.4375 -9.953125 16.4375 -8.171875 Z M 12.9375 -8.171875 C 12.9375 -9.898438 12.554688 -11.222656 11.796875 -12.140625 C 11.046875 -13.054688 10.039062 -13.515625 8.78125 -13.515625 C 7.53125 -13.515625 6.523438 -13.054688 5.765625 -12.140625 C 5.015625 -11.222656 4.640625 -9.898438 4.640625 -8.171875 C 4.640625 -6.441406 5.015625 -5.117188 5.765625 -4.203125 C 6.523438 -3.285156 7.53125 -2.828125 8.78125 -2.828125 C 10.039062 -2.828125 11.046875 -3.285156 11.796875 -4.203125 C 12.554688 -5.117188 12.9375 -6.441406 12.9375 -8.171875 Z M 12.9375 -8.171875 "/></g></g></g><g fill="#ffffff" fill-opacity="1"><g transform="translate(134.81145, 151.04132)"><g><path d="M 15.09375 -16.34375 L 15.09375 0 L 12.109375 0 L 5 -10.28125 L 4.875 -10.28125 L 4.875 0 L 1.421875 0 L 1.421875 -16.34375 L 4.453125 -16.34375 L 11.5 -6.0625 L 11.65625 -6.0625 L 11.65625 -16.34375 Z M 15.09375 -16.34375 "/></g></g></g><g fill="#ffffff" fill-opacity="1"><g transform="translate(150.005855, 151.04132)"><g><path d="M 0.796875 -13.5 L 0.796875 -16.34375 L 14.21875 -16.34375 L 14.21875 -13.5 L 9.21875 -13.5 L 9.21875 0 L 5.796875 0 L 5.796875 -13.5 Z M 0.796875 -13.5 "/></g></g></g><g fill="#ffffff" fill-opacity="1"><g transform="translate(163.699861, 151.04132)"><g><path d="M 1.421875 0 L 1.421875 -16.34375 L 7.875 -16.34375 C 9.726562 -16.34375 11.164062 -15.859375 12.1875 -14.890625 C 13.207031 -13.921875 13.71875 -12.625 13.71875 -11 C 13.71875 -9.882812 13.46875 -8.929688 12.96875 -8.140625 C 12.476562 -7.347656 11.765625 -6.75 10.828125 -6.34375 L 14.3125 0 L 10.5 0 L 7.390625 -5.796875 L 4.875 -5.796875 L 4.875 0 Z M 4.875 -8.5625 L 7.21875 -8.5625 C 9.1875 -8.5625 10.171875 -9.375 10.171875 -11 C 10.171875 -12.675781 9.179688 -13.515625 7.203125 -13.515625 L 4.875 -13.515625 Z M 4.875 -8.5625 "/></g></g></g><g fill="#ffffff" fill-opacity="1"><g transform="translate(177.122528, 151.04132)"><g><path d="M 1.421875 0 L 1.421875 -16.34375 L 12.4375 -16.34375 L 12.4375 -13.5 L 4.875 -13.5 L 4.875 -9.59375 L 11.859375 -9.59375 L 11.859375 -6.75 L 4.875 -6.75 L 4.875 -2.84375 L 12.46875 -2.84375 L 12.46875 0 Z M 1.421875 0 "/></g></g></g><g fill="#ffffff" fill-opacity="1"><g transform="translate(189.563532, 151.04132)"><g/></g></g><g fill="#ffffff" fill-opacity="1"><g transform="translate(193.449053, 151.04132)"><g><path d="M 1.421875 0 L 1.421875 -16.34375 L 7.875 -16.34375 C 9.101562 -16.34375 10.15625 -16.101562 11.03125 -15.625 C 11.90625 -15.15625 12.570312 -14.503906 13.03125 -13.671875 C 13.488281 -12.847656 13.71875 -11.890625 13.71875 -10.796875 C 13.71875 -9.710938 13.484375 -8.753906 13.015625 -7.921875 C 12.546875 -7.097656 11.867188 -6.453125 10.984375 -5.984375 C 10.097656 -5.523438 9.03125 -5.296875 7.78125 -5.296875 L 4.875 -5.296875 L 4.875 0 Z M 4.875 -8.0625 L 7.21875 -8.0625 C 8.207031 -8.0625 8.945312 -8.316406 9.4375 -8.828125 C 9.925781 -9.335938 10.171875 -9.992188 10.171875 -10.796875 C 10.171875 -11.617188 9.925781 -12.273438 9.4375 -12.765625 C 8.945312 -13.265625 8.203125 -13.515625 7.203125 -13.515625 L 4.875 -13.515625 Z M 4.875 -8.0625 "/></g></g></g><g fill="#ffffff" fill-opacity="1"><g transform="translate(206.680168, 151.04132)"><g><path d="M 1.421875 0 L 1.421875 -16.34375 L 12.4375 -16.34375 L 12.4375 -13.5 L 4.875 -13.5 L 4.875 -9.59375 L 11.859375 -9.59375 L 11.859375 -6.75 L 4.875 -6.75 L 4.875 -2.84375 L 12.46875 -2.84375 L 12.46875 0 Z M 1.421875 0 "/></g></g></g><g fill="#ffffff" fill-opacity="1"><g transform="translate(219.121172, 151.04132)"><g><path d="M 10.28125 -11.640625 C 10.21875 -12.285156 9.941406 -12.785156 9.453125 -13.140625 C 8.972656 -13.492188 8.320312 -13.671875 7.5 -13.671875 C 6.644531 -13.671875 5.988281 -13.5 5.53125 -13.15625 C 5.082031 -12.8125 4.859375 -12.375 4.859375 -11.84375 C 4.847656 -11.257812 5.097656 -10.816406 5.609375 -10.515625 C 6.128906 -10.210938 6.742188 -9.984375 7.453125 -9.828125 L 8.921875 -9.46875 C 9.867188 -9.257812 10.707031 -8.953125 11.4375 -8.546875 C 12.175781 -8.140625 12.753906 -7.617188 13.171875 -6.984375 C 13.597656 -6.347656 13.8125 -5.578125 13.8125 -4.671875 C 13.8125 -3.171875 13.253906 -1.976562 12.140625 -1.09375 C 11.023438 -0.207031 9.46875 0.234375 7.46875 0.234375 C 5.488281 0.234375 3.90625 -0.21875 2.71875 -1.125 C 1.539062 -2.03125 0.929688 -3.363281 0.890625 -5.125 L 4.234375 -5.125 C 4.296875 -4.3125 4.617188 -3.695312 5.203125 -3.28125 C 5.796875 -2.875 6.539062 -2.671875 7.4375 -2.671875 C 8.3125 -2.671875 9.007812 -2.851562 9.53125 -3.21875 C 10.0625 -3.59375 10.328125 -4.078125 10.328125 -4.671875 C 10.328125 -5.222656 10.085938 -5.648438 9.609375 -5.953125 C 9.128906 -6.253906 8.445312 -6.507812 7.5625 -6.71875 L 5.78125 -7.171875 C 4.394531 -7.492188 3.300781 -8.015625 2.5 -8.734375 C 1.707031 -9.453125 1.316406 -10.414062 1.328125 -11.625 C 1.316406 -12.601562 1.578125 -13.460938 2.109375 -14.203125 C 2.648438 -14.953125 3.390625 -15.53125 4.328125 -15.9375 C 5.265625 -16.351562 6.328125 -16.5625 7.515625 -16.5625 C 8.722656 -16.5625 9.78125 -16.351562 10.6875 -15.9375 C 11.601562 -15.519531 12.3125 -14.941406 12.8125 -14.203125 C 13.320312 -13.460938 13.582031 -12.609375 13.59375 -11.640625 Z M 10.28125 -11.640625 "/></g></g></g><g fill="#ffffff" fill-opacity="1"><g transform="translate(232.511907, 151.04132)"><g><path d="M 10.28125 -11.640625 C 10.21875 -12.285156 9.941406 -12.785156 9.453125 -13.140625 C 8.972656 -13.492188 8.320312 -13.671875 7.5 -13.671875 C 6.644531 -13.671875 5.988281 -13.5 5.53125 -13.15625 C 5.082031 -12.8125 4.859375 -12.375 4.859375 -11.84375 C 4.847656 -11.257812 5.097656 -10.816406 5.609375 -10.515625 C 6.128906 -10.210938 6.742188 -9.984375 7.453125 -9.828125 L 8.921875 -9.46875 C 9.867188 -9.257812 10.707031 -8.953125 11.4375 -8.546875 C 12.175781 -8.140625 12.753906 -7.617188 13.171875 -6.984375 C 13.597656 -6.347656 13.8125 -5.578125 13.8125 -4.671875 C 13.8125 -3.171875 13.253906 -1.976562 12.140625 -1.09375 C 11.023438 -0.207031 9.46875 0.234375 7.46875 0.234375 C 5.488281 0.234375 3.90625 -0.21875 2.71875 -1.125 C 1.539062 -2.03125 0.929688 -3.363281 0.890625 -5.125 L 4.234375 -5.125 C 4.296875 -4.3125 4.617188 -3.695312 5.203125 -3.28125 C 5.796875 -2.875 6.539062 -2.671875 7.4375 -2.671875 C 8.3125 -2.671875 9.007812 -2.851562 9.53125 -3.21875 C 10.0625 -3.59375 10.328125 -4.078125 10.328125 -4.671875 C 10.328125 -5.222656 10.085938 -5.648438 9.609375 -5.953125 C 9.128906 -6.253906 8.445312 -6.507812 7.5625 -6.71875 L 5.78125 -7.171875 C 4.394531 -7.492188 3.300781 -8.015625 2.5 -8.734375 C 1.707031 -9.453125 1.316406 -10.414062 1.328125 -11.625 C 1.316406 -12.601562 1.578125 -13.460938 2.109375 -14.203125 C 2.648438 -14.953125 3.390625 -15.53125 4.328125 -15.9375 C 5.265625 -16.351562 6.328125 -16.5625 7.515625 -16.5625 C 8.722656 -16.5625 9.78125 -16.351562 10.6875 -15.9375 C 11.601562 -15.519531 12.3125 -14.941406 12.8125 -14.203125 C 13.320312 -13.460938 13.582031 -12.609375 13.59375 -11.640625 Z M 10.28125 -11.640625 "/></g></g></g><g fill="#ffffff" fill-opacity="1"><g transform="translate(245.902642, 151.04132)"><g><path d="M 16.4375 -8.171875 C 16.4375 -6.390625 16.097656 -4.875 15.421875 -3.625 C 14.753906 -2.375 13.84375 -1.421875 12.6875 -0.765625 C 11.53125 -0.109375 10.226562 0.21875 8.78125 0.21875 C 7.332031 0.21875 6.03125 -0.109375 4.875 -0.765625 C 3.71875 -1.421875 2.804688 -2.375 2.140625 -3.625 C 1.472656 -4.882812 1.140625 -6.398438 1.140625 -8.171875 C 1.140625 -9.953125 1.472656 -11.46875 2.140625 -12.71875 C 2.804688 -13.96875 3.71875 -14.921875 4.875 -15.578125 C 6.03125 -16.234375 7.332031 -16.5625 8.78125 -16.5625 C 10.226562 -16.5625 11.53125 -16.234375 12.6875 -15.578125 C 13.84375 -14.921875 14.753906 -13.96875 15.421875 -12.71875 C 16.097656 -11.46875 16.4375 -9.953125 16.4375 -8.171875 Z M 12.9375 -8.171875 C 12.9375 -9.898438 12.554688 -11.222656 11.796875 -12.140625 C 11.046875 -13.054688 10.039062 -13.515625 8.78125 -13.515625 C 7.53125 -13.515625 6.523438 -13.054688 5.765625 -12.140625 C 5.015625 -11.222656 4.640625 -9.898438 4.640625 -8.171875 C 4.640625 -6.441406 5.015625 -5.117188 5.765625 -4.203125 C 6.523438 -3.285156 7.53125 -2.828125 8.78125 -2.828125 C 10.039062 -2.828125 11.046875 -3.285156 11.796875 -4.203125 C 12.554688 -5.117188 12.9375 -6.441406 12.9375 -8.171875 Z M 12.9375 -8.171875 "/></g></g></g><g fill="#ffffff" fill-opacity="1"><g transform="translate(262.150523, 151.04132)"><g><path d="M 4.234375 0 L 0.53125 0 L 6.171875 -16.34375 L 10.625 -16.34375 L 16.265625 0 L 12.5625 0 L 11.34375 -3.71875 L 5.453125 -3.71875 Z M 6.328125 -6.421875 L 10.46875 -6.421875 L 8.46875 -12.609375 L 8.34375 -12.609375 Z M 6.328125 -6.421875 "/></g></g></g><g fill="#ffffff" fill-opacity="1"><g transform="translate(277.632243, 151.04132)"><g><path d="M 10.28125 -11.640625 C 10.21875 -12.285156 9.941406 -12.785156 9.453125 -13.140625 C 8.972656 -13.492188 8.320312 -13.671875 7.5 -13.671875 C 6.644531 -13.671875 5.988281 -13.5 5.53125 -13.15625 C 5.082031 -12.8125 4.859375 -12.375 4.859375 -11.84375 C 4.847656 -11.257812 5.097656 -10.816406 5.609375 -10.515625 C 6.128906 -10.210938 6.742188 -9.984375 7.453125 -9.828125 L 8.921875 -9.46875 C 9.867188 -9.257812 10.707031 -8.953125 11.4375 -8.546875 C 12.175781 -8.140625 12.753906 -7.617188 13.171875 -6.984375 C 13.597656 -6.347656 13.8125 -5.578125 13.8125 -4.671875 C 13.8125 -3.171875 13.253906 -1.976562 12.140625 -1.09375 C 11.023438 -0.207031 9.46875 0.234375 7.46875 0.234375 C 5.488281 0.234375 3.90625 -0.21875 2.71875 -1.125 C 1.539062 -2.03125 0.929688 -3.363281 0.890625 -5.125 L 4.234375 -5.125 C 4.296875 -4.3125 4.617188 -3.695312 5.203125 -3.28125 C 5.796875 -2.875 6.539062 -2.671875 7.4375 -2.671875 C 8.3125 -2.671875 9.007812 -2.851562 9.53125 -3.21875 C 10.0625 -3.59375 10.328125 -4.078125 10.328125 -4.671875 C 10.328125 -5.222656 10.085938 -5.648438 9.609375 -5.953125 C 9.128906 -6.253906 8.445312 -6.507812 7.5625 -6.71875 L 5.78125 -7.171875 C 4.394531 -7.492188 3.300781 -8.015625 2.5 -8.734375 C 1.707031 -9.453125 1.316406 -10.414062 1.328125 -11.625 C 1.316406 -12.601562 1.578125 -13.460938 2.109375 -14.203125 C 2.648438 -14.953125 3.390625 -15.53125 4.328125 -15.9375 C 5.265625 -16.351562 6.328125 -16.5625 7.515625 -16.5625 C 8.722656 -16.5625 9.78125 -16.351562 10.6875 -15.9375 C 11.601562 -15.519531 12.3125 -14.941406 12.8125 -14.203125 C 13.320312 -13.460938 13.582031 -12.609375 13.59375 -11.640625 Z M 10.28125 -11.640625 "/></g></g></g><g fill="#ffffff" fill-opacity="1"><g transform="translate(291.022978, 151.04132)"><g/></g></g><g fill="#ffffff" fill-opacity="1"><g transform="translate(294.908499, 151.04132)"><g><path d="M 1.421875 0 L 1.421875 -16.34375 L 7.875 -16.34375 C 9.101562 -16.34375 10.15625 -16.101562 11.03125 -15.625 C 11.90625 -15.15625 12.570312 -14.503906 13.03125 -13.671875 C 13.488281 -12.847656 13.71875 -11.890625 13.71875 -10.796875 C 13.71875 -9.710938 13.484375 -8.753906 13.015625 -7.921875 C 12.546875 -7.097656 11.867188 -6.453125 10.984375 -5.984375 C 10.097656 -5.523438 9.03125 -5.296875 7.78125 -5.296875 L 4.875 -5.296875 L 4.875 0 Z M 4.875 -8.0625 L 7.21875 -8.0625 C 8.207031 -8.0625 8.945312 -8.316406 9.4375 -8.828125 C 9.925781 -9.335938 10.171875 -9.992188 10.171875 -10.796875 C 10.171875 -11.617188 9.925781 -12.273438 9.4375 -12.765625 C 8.945312 -13.265625 8.203125 -13.515625 7.203125 -13.515625 L 4.875 -13.515625 Z M 4.875 -8.0625 "/></g></g></g><g fill="#ffffff" fill-opacity="1"><g transform="translate(308.139613, 151.04132)"><g><path d="M 4.234375 0 L 0.53125 0 L 6.171875 -16.34375 L 10.625 -16.34375 L 16.265625 0 L 12.5625 0 L 11.34375 -3.71875 L 5.453125 -3.71875 Z M 6.328125 -6.421875 L 10.46875 -6.421875 L 8.46875 -12.609375 L 8.34375 -12.609375 Z M 6.328125 -6.421875 "/></g></g></g><g fill="#ffffff" fill-opacity="1"><g transform="translate(323.621344, 151.04132)"><g><path d="M 1.421875 0 L 1.421875 -16.34375 L 7.875 -16.34375 C 9.726562 -16.34375 11.164062 -15.859375 12.1875 -14.890625 C 13.207031 -13.921875 13.71875 -12.625 13.71875 -11 C 13.71875 -9.882812 13.46875 -8.929688 12.96875 -8.140625 C 12.476562 -7.347656 11.765625 -6.75 10.828125 -6.34375 L 14.3125 0 L 10.5 0 L 7.390625 -5.796875 L 4.875 -5.796875 L 4.875 0 Z M 4.875 -8.5625 L 7.21875 -8.5625 C 9.1875 -8.5625 10.171875 -9.375 10.171875 -11 C 10.171875 -12.675781 9.179688 -13.515625 7.203125 -13.515625 L 4.875 -13.515625 Z M 4.875 -8.5625 "/></g></g></g><g fill="#ffffff" fill-opacity="1"><g transform="translate(337.044017, 151.04132)"><g><path d="M 4.234375 0 L 0.53125 0 L 6.171875 -16.34375 L 10.625 -16.34375 L 16.265625 0 L 12.5625 0 L 11.34375 -3.71875 L 5.453125 -3.71875 Z M 6.328125 -6.421875 L 10.46875 -6.421875 L 8.46875 -12.609375 L 8.34375 -12.609375 Z M 6.328125 -6.421875 "/></g></g></g><g fill="#ffffff" fill-opacity="1"><g transform="translate(352.525747, 151.04132)"><g/></g></g><g fill="#ffffff" fill-opacity="1"><g transform="translate(356.411268, 151.04132)"><g><path d="M 7.96875 -16.34375 L 11.375 -16.34375 L 11.375 -4.953125 C 11.375 -3.890625 11.140625 -2.972656 10.671875 -2.203125 C 10.203125 -1.429688 9.546875 -0.832031 8.703125 -0.40625 C 7.867188 0.0078125 6.898438 0.21875 5.796875 0.21875 C 4.816406 0.21875 3.925781 0.046875 3.125 -0.296875 C 2.320312 -0.648438 1.6875 -1.179688 1.21875 -1.890625 C 0.75 -2.609375 0.519531 -3.507812 0.53125 -4.59375 L 3.96875 -4.59375 C 3.976562 -3.945312 4.164062 -3.441406 4.53125 -3.078125 C 4.894531 -2.722656 5.375 -2.546875 5.96875 -2.546875 C 7.289062 -2.546875 7.957031 -3.347656 7.96875 -4.953125 Z M 7.96875 -16.34375 "/></g></g></g><g fill="#ffffff" fill-opacity="1"><g transform="translate(367.894586, 151.04132)"><g><path d="M 16.4375 -8.171875 C 16.4375 -6.390625 16.097656 -4.875 15.421875 -3.625 C 14.753906 -2.375 13.84375 -1.421875 12.6875 -0.765625 C 11.53125 -0.109375 10.226562 0.21875 8.78125 0.21875 C 7.332031 0.21875 6.03125 -0.109375 4.875 -0.765625 C 3.71875 -1.421875 2.804688 -2.375 2.140625 -3.625 C 1.472656 -4.882812 1.140625 -6.398438 1.140625 -8.171875 C 1.140625 -9.953125 1.472656 -11.46875 2.140625 -12.71875 C 2.804688 -13.96875 3.71875 -14.921875 4.875 -15.578125 C 6.03125 -16.234375 7.332031 -16.5625 8.78125 -16.5625 C 10.226562 -16.5625 11.53125 -16.234375 12.6875 -15.578125 C 13.84375 -14.921875 14.753906 -13.96875 15.421875 -12.71875 C 16.097656 -11.46875 16.4375 -9.953125 16.4375 -8.171875 Z M 12.9375 -8.171875 C 12.9375 -9.898438 12.554688 -11.222656 11.796875 -12.140625 C 11.046875 -13.054688 10.039062 -13.515625 8.78125 -13.515625 C 7.53125 -13.515625 6.523438 -13.054688 5.765625 -12.140625 C 5.015625 -11.222656 4.640625 -9.898438 4.640625 -8.171875 C 4.640625 -6.441406 5.015625 -5.117188 5.765625 -4.203125 C 6.523438 -3.285156 7.53125 -2.828125 8.78125 -2.828125 C 10.039062 -2.828125 11.046875 -3.285156 11.796875 -4.203125 C 12.554688 -5.117188 12.9375 -6.441406 12.9375 -8.171875 Z M 12.9375 -8.171875 "/></g></g></g><g fill="#ffffff" fill-opacity="1"><g transform="translate(384.142479, 151.04132)"><g><path d="M 12.25 -11.0625 C 12.03125 -11.820312 11.628906 -12.421875 11.046875 -12.859375 C 10.460938 -13.296875 9.722656 -13.515625 8.828125 -13.515625 C 7.578125 -13.515625 6.566406 -13.050781 5.796875 -12.125 C 5.023438 -11.195312 4.640625 -9.882812 4.640625 -8.1875 C 4.640625 -6.476562 5.019531 -5.15625 5.78125 -4.21875 C 6.539062 -3.289062 7.566406 -2.828125 8.859375 -2.828125 C 10.015625 -2.828125 10.921875 -3.125 11.578125 -3.71875 C 12.234375 -4.320312 12.570312 -5.128906 12.59375 -6.140625 L 9.078125 -6.140625 L 9.078125 -8.75 L 15.921875 -8.75 L 15.921875 -6.6875 C 15.921875 -5.257812 15.613281 -4.023438 15 -2.984375 C 14.394531 -1.953125 13.5625 -1.160156 12.5 -0.609375 C 11.445312 -0.0546875 10.226562 0.21875 8.84375 0.21875 C 7.3125 0.21875 5.96875 -0.117188 4.8125 -0.796875 C 3.65625 -1.472656 2.753906 -2.4375 2.109375 -3.6875 C 1.460938 -4.9375 1.140625 -6.425781 1.140625 -8.15625 C 1.140625 -9.914062 1.472656 -11.421875 2.140625 -12.671875 C 2.816406 -13.929688 3.734375 -14.894531 4.890625 -15.5625 C 6.046875 -16.226562 7.34375 -16.5625 8.78125 -16.5625 C 10.007812 -16.5625 11.125 -16.328125 12.125 -15.859375 C 13.125 -15.390625 13.941406 -14.738281 14.578125 -13.90625 C 15.222656 -13.082031 15.617188 -12.132812 15.765625 -11.0625 Z M 12.25 -11.0625 "/></g></g></g><g fill="#ffffff" fill-opacity="1"><g transform="translate(399.911511, 151.04132)"><g><path d="M 4.234375 0 L 0.53125 0 L 6.171875 -16.34375 L 10.625 -16.34375 L 16.265625 0 L 12.5625 0 L 11.34375 -3.71875 L 5.453125 -3.71875 Z M 6.328125 -6.421875 L 10.46875 -6.421875 L 8.46875 -12.609375 L 8.34375 -12.609375 Z M 6.328125 -6.421875 "/></g></g></g><g fill="#ffffff" fill-opacity="1"><g transform="translate(415.393242, 151.04132)"><g><path d="M 1.421875 0 L 1.421875 -16.34375 L 7.875 -16.34375 C 9.726562 -16.34375 11.164062 -15.859375 12.1875 -14.890625 C 13.207031 -13.921875 13.71875 -12.625 13.71875 -11 C 13.71875 -9.882812 13.46875 -8.929688 12.96875 -8.140625 C 12.476562 -7.347656 11.765625 -6.75 10.828125 -6.34375 L 14.3125 0 L 10.5 0 L 7.390625 -5.796875 L 4.875 -5.796875 L 4.875 0 Z M 4.875 -8.5625 L 7.21875 -8.5625 C 9.1875 -8.5625 10.171875 -9.375 10.171875 -11 C 10.171875 -12.675781 9.179688 -13.515625 7.203125 -13.515625 L 4.875 -13.515625 Z M 4.875 -8.5625 "/></g></g></g></svg>